<?xml version="1.0" encoding="UTF-8" standalone="no"?>
<!DOCTYPE svg PUBLIC "-//W3C//DTD SVG 1.1//EN" "http://www.w3.org/Graphics/SVG/1.1/DTD/svg11.dtd">
<svg version="1.1" xmlns="http://www.w3.org/2000/svg" xmlns:xlink="http://www.w3.org/1999/xlink" preserveAspectRatio="xMidYMid meet" viewBox="0 0 640 640" width="640" height="640"><defs><path d="M320 0C143.27 0 0 143.27 0 320C0 496.73 143.27 640 320 640C496.73 640 640 496.73 640 320C640 143.27 496.73 0 320 0Z" id="b29KbjjHOy"></path><path d="M398.62 310.21L414.07 310.21L414.07 317.7L398.62 317.7L398.62 310.21Z" id="b1EXONLlU"></path><path d="M225.62 310.21L241.07 310.21L241.07 317.7L225.62 317.7L225.62 310.21Z" id="dnCjUkr6R"></path><path d="M395.64 314.62C395.64 337.22 395.64 349.78 395.64 352.3C395.64 393.97 361.86 427.75 320.19 427.75C278.51 427.75 244.73 393.97 244.73 352.3C244.73 349.78 244.73 337.22 244.73 314.62L395.64 314.62Z" id="a3X5RU4HjJ"></path><path d="M396.97 313.96L246.06 313.96C246.06 239.45 246.06 198.06 246.06 189.78C246.06 185.03 246.5 180.3 247.39 175.63C248.54 169.56 250.44 163.66 253.06 158.07C270.59 120.25 315.45 103.81 353.27 121.34C361.3 125.06 368.62 130.17 374.88 136.43C385.56 147.13 392.79 160.79 395.64 175.63C396.53 180.3 396.97 185.03 396.97 189.78C396.97 206.33 396.97 247.73 396.97 313.96Z" id="e1ELQCZkVb"></path><path d="M411.93 305.1L411.93 324.1L420.13 324.1C420.13 341.31 420.13 350.87 420.13 352.78C420.13 408.08 375.3 452.91 320 452.91C264.7 452.91 219.88 408.08 219.88 352.78C219.87 350.87 219.88 341.31 219.88 324.11L229.38 324.11L229.38 305.11L200.88 305.11C200.88 333.72 200.88 349.62 200.88 352.8C200.88 418.6 254.21 471.94 320.01 471.94C385.81 471.94 439.15 418.6 439.15 352.8C439.15 349.62 439.15 333.72 439.15 305.1L411.93 305.1Z" id="azd1aiu82"></path><path d="M237.99 305.1L402.41 305.1L402.41 324.11L237.99 324.11L237.99 305.1Z" id="c27N98LxNL"></path><path d="M345.72 176.29C340.86 176.17 337.03 172.15 337.14 167.3C337.25 162.61 341.03 158.84 345.72 158.73C350.01 158.73 384.35 158.73 388.64 158.73C391.25 164.32 393.16 170.22 394.3 176.29C384.59 176.29 350.57 176.29 345.72 176.29Z" id="a1FajUG0J0"></path><path d="M395.64 194.62L395.64 212.18C365.69 212.18 349.04 212.18 345.72 212.18C340.87 212.18 336.93 208.24 336.94 203.4C336.96 198.56 340.88 194.64 345.72 194.61C352.37 194.61 369.01 194.61 395.64 194.62Z" id="a1uIp2mW8E"></path><path d="M395.64 230.5L395.64 248.07C365.69 248.07 349.04 248.07 345.72 248.07C340.87 248.05 336.95 244.12 336.94 239.28C336.96 234.44 340.88 230.53 345.71 230.5C352.37 230.5 369.01 230.5 395.64 230.5Z" id="b6u4dwq8aK"></path><path d="M395.64 266.37L395.64 283.97C365.69 283.97 349.04 283.97 345.72 283.97C340.87 283.95 336.95 280.03 336.94 275.19C336.94 275.18 336.94 275.15 336.94 275.15C336.95 270.3 340.87 266.38 345.71 266.36C352.37 266.36 369.01 266.36 395.64 266.37Z" id="f3fn2NIDgJ"></path><path d="M294.65 176.29C289.79 176.29 250.92 176.29 246.06 176.29C247.21 170.22 249.11 164.32 251.73 158.72C256.02 158.72 290.36 158.72 294.65 158.72C299.49 158.74 303.41 162.66 303.44 167.5C303.43 172.35 299.5 176.29 294.65 176.29Z" id="b34YHHQZVJ"></path><path d="M294.65 212.18C291.32 212.18 274.68 212.18 244.73 212.19L244.73 194.61C274.68 194.61 291.32 194.61 294.65 194.61C296.98 194.62 299.2 195.55 300.84 197.2C302.51 198.83 303.44 201.07 303.44 203.4C303.43 208.25 299.5 212.18 294.65 212.18Z" id="b1PiJgHIU7"></path><path d="M294.65 248.08C291.32 248.08 274.68 248.08 244.73 248.08L244.73 230.5C274.68 230.5 291.32 230.5 294.65 230.5C296.98 230.51 299.2 231.44 300.84 233.09C302.51 234.72 303.45 236.96 303.44 239.3C303.42 244.14 299.5 248.07 294.65 248.08Z" id="aOtR1mxeA"></path><path d="M303.44 275.19C303.42 280.03 299.5 283.96 294.65 283.97C291.32 283.97 274.68 283.97 244.73 283.97L244.73 266.37C274.68 266.37 291.32 266.37 294.65 266.37C299.49 266.38 303.42 270.3 303.43 275.15C303.43 275.15 303.44 275.18 303.44 275.19Z" id="at922jYPL"></path><path d="M303.21 461L336.79 461L336.79 525L303.21 525L303.21 461Z" id="i16t2vDPlL"></path></defs><g><g><g><use xlink:href="#b29KbjjHOy" opacity="1" fill="#2196f3" fill-opacity="1"></use><g><use xlink:href="#b29KbjjHOy" opacity="1" fill-opacity="0" stroke="#000000" stroke-width="1" stroke-opacity="0"></use></g></g><g><use xlink:href="#b1EXONLlU" opacity="1" fill="#828a9e" fill-opacity="1"></use><g><use xlink:href="#b1EXONLlU" opacity="1" fill-opacity="0" stroke="#000000" stroke-width="1" stroke-opacity="0"></use></g></g><g><use xlink:href="#dnCjUkr6R" opacity="1" fill="#828a9e" fill-opacity="1"></use><g><use xlink:href="#dnCjUkr6R" opacity="1" fill-opacity="0" stroke="#000000" stroke-width="1" stroke-opacity="0"></use></g></g><g><use xlink:href="#a3X5RU4HjJ" opacity="1" fill="#484c59" fill-opacity="1"></use><g><use xlink:href="#a3X5RU4HjJ" opacity="1" fill-opacity="0" stroke="#000000" stroke-width="1" stroke-opacity="0"></use></g></g><g><use xlink:href="#e1ELQCZkVb" opacity="1" fill="#d9ddd8" fill-opacity="1"></use><g><use xlink:href="#e1ELQCZkVb" opacity="1" fill-opacity="0" stroke="#000000" stroke-width="1" stroke-opacity="0"></use></g></g><g><use xlink:href="#azd1aiu82" opacity="1" fill="#62667c" fill-opacity="1"></use><g><use xlink:href="#azd1aiu82" opacity="1" fill-opacity="0" stroke="#000000" stroke-width="1" stroke-opacity="0"></use></g></g><g><use xlink:href="#c27N98LxNL" opacity="1" fill="#62667c" fill-opacity="1"></use><g><use xlink:href="#c27N98LxNL" opacity="1" fill-opacity="0" stroke="#000000" stroke-width="1" stroke-opacity="0"></use></g></g><g><use xlink:href="#a1FajUG0J0" opacity="1" fill="#828a9e" fill-opacity="1"></use><g><use xlink:href="#a1FajUG0J0" opacity="1" fill-opacity="0" stroke="#000000" stroke-width="1" stroke-opacity="0"></use></g></g><g><use xlink:href="#a1uIp2mW8E" opacity="1" fill="#828a9e" fill-opacity="1"></use><g><use xlink:href="#a1uIp2mW8E" opacity="1" fill-opacity="0" stroke="#000000" stroke-width="1" stroke-opacity="0"></use></g></g><g><use xlink:href="#b6u4dwq8aK" opacity="1" fill="#828a9e" fill-opacity="1"></use><g><use xlink:href="#b6u4dwq8aK" opacity="1" fill-opacity="0" stroke="#000000" stroke-width="1" stroke-opacity="0"></use></g></g><g><use xlink:href="#f3fn2NIDgJ" opacity="1" fill="#828a9e" fill-opacity="1"></use><g><use xlink:href="#f3fn2NIDgJ" opacity="1" fill-opacity="0" stroke="#000000" stroke-width="1" stroke-opacity="0"></use></g></g><g><use xlink:href="#b34YHHQZVJ" opacity="1" fill="#828a9e" fill-opacity="1"></use><g><use xlink:href="#b34YHHQZVJ" opacity="1" fill-opacity="0" stroke="#000000" stroke-width="1" stroke-opacity="0"></use></g></g><g><use xlink:href="#b1PiJgHIU7" opacity="1" fill="#828a9e" fill-opacity="1"></use><g><use xlink:href="#b1PiJgHIU7" opacity="1" fill-opacity="0" stroke="#000000" stroke-width="1" stroke-opacity="0"></use></g></g><g><use xlink:href="#aOtR1mxeA" opacity="1" fill="#828a9e" fill-opacity="1"></use><g><use xlink:href="#aOtR1mxeA" opacity="1" fill-opacity="0" stroke="#000000" stroke-width="1" stroke-opacity="0"></use></g></g><g><use xlink:href="#at922jYPL" opacity="1" fill="#828a9e" fill-opacity="1"></use><g><use xlink:href="#at922jYPL" opacity="1" fill-opacity="0" stroke="#000000" stroke-width="1" stroke-opacity="0"></use></g></g><g><use xlink:href="#i16t2vDPlL" opacity="1" fill="#62667c" fill-opacity="1"></use><g><use xlink:href="#i16t2vDPlL" opacity="1" fill-opacity="0" stroke="#000000" stroke-width="1" stroke-opacity="0"></use></g></g></g></g></svg>