<?xml version="1.0" encoding="UTF-8" standalone="no"?>
<!DOCTYPE svg PUBLIC "-//W3C//DTD SVG 1.1//EN" "http://www.w3.org/Graphics/SVG/1.1/DTD/svg11.dtd">
<svg version="1.1" xmlns="http://www.w3.org/2000/svg" xmlns:xlink="http://www.w3.org/1999/xlink" preserveAspectRatio="xMidYMid meet" viewBox="0 0 640 640" width="640" height="640"><defs><path d="M0 320C0 143.55 143.55 0 320 0C496.45 0 640 143.55 640 320C640 496.45 496.45 640 320 640C143.55 640 0 496.45 0 320Z" id="fMLazbTlz"></path><path d="M482.32 215.79C478.61 218.1 460.06 229.7 426.67 250.56C426.67 248.22 426.67 246.93 426.67 246.67C426.67 213.57 399.73 186.67 366.67 186.67C346.67 186.67 186.67 186.67 166.67 186.67C133.6 186.67 106.67 213.57 106.67 246.67C106.67 261.33 106.67 378.67 106.67 393.33C106.67 426.43 133.6 453.33 166.67 453.33C186.67 453.33 346.67 453.33 366.67 453.33C399.73 453.33 426.67 426.43 426.67 393.33C426.67 393.07 426.67 391.78 426.67 389.44C460.07 410.32 478.63 421.92 482.35 424.24C487.73 427.6 493.89 429.28 500 429.28C505.57 429.28 511.15 427.89 516.16 425.12C526.75 419.25 533.33 408.05 533.33 395.95C533.33 380.76 533.33 259.24 533.33 244.05C533.33 231.95 526.75 220.77 516.16 214.91C505.57 209.07 492.61 209.36 482.32 215.79Z" id="n4A5JuJn3v"></path><path d="M533.33 320C533.33 365.57 533.33 390.88 533.33 395.95C533.33 408.05 526.75 419.23 516.16 425.12C511.15 427.89 505.57 429.28 500 429.28C493.89 429.28 487.73 427.6 482.35 424.24C478.63 421.92 460.07 410.32 426.67 389.44C426.67 391.78 426.67 393.07 426.67 393.33C426.67 426.43 399.73 453.33 366.67 453.33C346.67 453.33 186.67 453.33 166.67 453.33C133.6 453.33 106.67 426.43 106.67 393.33C106.67 388.44 106.67 364 106.67 320C42.67 320 7.11 320 0 320C0 496.45 143.55 640 320 640C496.45 640 640 496.45 640 320C625.78 320 590.22 320 533.33 320Z" id="dLGw7gCuX"></path><path d="M533.33 320L106.67 320C106.67 364 106.67 388.44 106.67 393.33C106.67 426.43 133.6 453.33 166.67 453.33C186.67 453.33 346.67 453.33 366.67 453.33C399.73 453.33 426.67 426.43 426.67 393.33C426.67 393.07 426.67 391.78 426.67 389.44C460.07 410.32 478.63 421.92 482.35 424.24C487.73 427.6 493.89 429.28 500 429.28C505.57 429.28 511.15 427.89 516.16 425.12C526.75 419.25 533.33 408.05 533.33 395.95C533.33 385.82 533.33 360.5 533.33 320Z" id="aiSl5EMKW"></path><path d="M400.43 49.04L459.28 82.82L177.44 573.83L118.59 540.05L400.43 49.04Z" id="e2hGRkCYx9"></path></defs><g><g><g><use xlink:href="#fMLazbTlz" opacity="1" fill="#2196f3" fill-opacity="1"></use><g><use xlink:href="#fMLazbTlz" opacity="1" fill-opacity="0" stroke="#000000" stroke-width="1" stroke-opacity="0"></use></g></g><g><use xlink:href="#n4A5JuJn3v" opacity="1" fill="#fafafa" fill-opacity="1"></use><g><use xlink:href="#n4A5JuJn3v" opacity="1" fill-opacity="0" stroke="#000000" stroke-width="1" stroke-opacity="0"></use></g></g><g><use xlink:href="#dLGw7gCuX" opacity="1" fill="#1d83d4" fill-opacity="1"></use><g><use xlink:href="#dLGw7gCuX" opacity="1" fill-opacity="0" stroke="#000000" stroke-width="1" stroke-opacity="0"></use></g></g><g><use xlink:href="#aiSl5EMKW" opacity="1" fill="#dadada" fill-opacity="1"></use><g><use xlink:href="#aiSl5EMKW" opacity="1" fill-opacity="0" stroke="#000000" stroke-width="1" stroke-opacity="0"></use></g></g><g><use xlink:href="#e2hGRkCYx9" opacity="0.78" fill="#000000" fill-opacity="1"></use><g><use xlink:href="#e2hGRkCYx9" opacity="0.78" fill-opacity="0" stroke="#ffffff" stroke-width="1" stroke-opacity="1"></use></g></g></g></g></svg>