<svg id="color" enable-background="new 0 0 24 24" height="512" viewBox="0 0 24 24" width="512" xmlns="http://www.w3.org/2000/svg"><path d="m12 24c-6.617 0-12-5.383-12-12s5.383-12 12-12 12 5.383 12 12-5.383 12-12 12z" fill="#2196f3"/><path d="m19.356 8.059c-.397-.219-.883-.208-1.269.033l-2.087 1.304v-.146c0-1.241-1.01-2.25-2.25-2.25h-7.5c-1.24 0-2.25 1.009-2.25 2.25v5.5c0 1.241 1.01 2.25 2.25 2.25h7.5c1.24 0 2.25-1.009 2.25-2.25v-.146l2.088 1.305c.202.126.433.189.662.189.209 0 .418-.052.606-.156.397-.22.644-.64.644-1.094v-5.696c0-.454-.247-.873-.644-1.093z" fill="#fafafa"/><path d="m24 12h-4v2.848c0 .454-.247.873-.644 1.094-.188.104-.397.156-.606.156-.229 0-.46-.063-.662-.189l-2.088-1.305v.146c0 1.241-1.01 2.25-2.25 2.25h-7.5c-1.24 0-2.25-1.009-2.25-2.25v-2.75h-4c0 6.617 5.383 12 12 12s12-5.383 12-12z" fill="#1d83d4"/><path d="m20 12h-16v2.75c0 1.241 1.01 2.25 2.25 2.25h7.5c1.24 0 2.25-1.009 2.25-2.25v-.146l2.088 1.305c.202.126.433.189.662.189.209 0 .418-.052.606-.156.397-.22.644-.64.644-1.094z" fill="#dadada"/></svg>